<svg width="29" height="28" viewBox="0 0 29 28" fill="none" xmlns="http://www.w3.org/2000/svg">
<path d="M21.0266 25.6666C24.1194 25.6666 26.6266 23.1595 26.6266 20.0667C26.6266 16.9739 24.1194 14.4667 21.0266 14.4667C17.9338 14.4667 15.4266 16.9739 15.4266 20.0667C15.4266 23.1595 17.9338 25.6666 21.0266 25.6666Z" stroke="white" stroke-width="1.75" stroke-miterlimit="10" stroke-linecap="round" stroke-linejoin="round"/>
<path d="M23.1149 20.1366H18.9382" stroke="white" stroke-width="1.75" stroke-miterlimit="10" stroke-linecap="round" stroke-linejoin="round"/>
<path d="M21.0266 18.095V22.2833" stroke="white" stroke-width="1.75" stroke-miterlimit="10" stroke-linecap="round" stroke-linejoin="round"/>
<path d="M26.6267 10.1384C26.6267 12.4367 26.0317 14.4667 25.0983 16.2284C24.0717 15.1434 22.625 14.4668 21.0267 14.4668C17.935 14.4668 15.4267 16.9751 15.4267 20.0667C15.4267 21.5017 15.975 22.8084 16.8617 23.8001C16.43 23.9984 16.0333 24.1617 15.6833 24.2784C15.2867 24.4184 14.6333 24.4184 14.2367 24.2784C10.8533 23.1234 3.29333 18.3051 3.29333 10.1384C3.29333 6.5334 6.19833 3.6167 9.78 3.6167C11.8917 3.6167 13.7817 4.64341 14.96 6.21841C16.1383 4.64341 18.0283 3.6167 20.14 3.6167C23.7217 3.6167 26.6267 6.5334 26.6267 10.1384Z" stroke="white" stroke-width="1.75" stroke-linecap="round" stroke-linejoin="round"/>
</svg>
