<svg width="29" height="28" viewBox="0 0 29 28" fill="none" xmlns="http://www.w3.org/2000/svg">
<path opacity="0.4" d="M14.9599 2.33337C11.9033 2.33337 9.41827 4.81837 9.41827 7.87504C9.41827 10.8734 11.7633 13.3 14.8199 13.405C14.9133 13.3934 15.0066 13.3934 15.0766 13.405C15.0999 13.405 15.1116 13.405 15.1349 13.405C15.1466 13.405 15.1466 13.405 15.1583 13.405C18.1449 13.3 20.4899 10.8734 20.5016 7.87504C20.5016 4.81837 18.0166 2.33337 14.9599 2.33337Z" fill="white"/>
<path d="M20.8866 16.5084C17.6316 14.3384 12.3232 14.3384 9.04492 16.5084C7.56325 17.5 6.74658 18.8417 6.74658 20.2767C6.74658 21.7117 7.56325 23.0417 9.03325 24.0217C10.6666 25.1184 12.8132 25.6667 14.9599 25.6667C17.1066 25.6667 19.2532 25.1184 20.8866 24.0217C22.3566 23.03 23.1733 21.7 23.1733 20.2534C23.1616 18.8184 22.3566 17.4884 20.8866 16.5084Z" fill="white"/>
</svg>
